<?xml version="1.0" standalone="no"?>
<!DOCTYPE svg PUBLIC "-//W3C//DTD SVG 20010904//EN"
 "http://www.w3.org/TR/2001/REC-SVG-20010904/DTD/svg10.dtd">
<svg version="1.0" xmlns="http://www.w3.org/2000/svg"
 width="512.000000pt" height="512.000000pt" viewBox="0 0 512.000000 512.000000"
 preserveAspectRatio="xMidYMid meet">

<g transform="translate(0.000000,512.000000) scale(0.100000,-0.100000)"
fill="#000000" stroke="none">
<path d="M2335 5108 c-556 -56 -1098 -348 -1450 -783 -257 -317 -414 -676
-470 -1079 -19 -132 -22 -406 -5 -526 63 -467 291 -945 679 -1425 259 -319
585 -640 1206 -1184 28 -24 79 -58 115 -75 57 -27 76 -31 150 -31 74 0 93 4
150 31 36 17 88 51 115 75 621 544 947 865 1206 1184 388 480 616 958 679
1425 17 120 14 394 -5 526 -88 629 -433 1173 -966 1524 -400 264 -914 388
-1404 338z m515 -312 c675 -111 1234 -574 1463 -1211 115 -318 141 -683 72
-984 -82 -352 -255 -690 -540 -1056 -225 -289 -487 -556 -969 -987 -231 -207
-294 -258 -316 -258 -22 0 -85 51 -316 258 -747 668 -1091 1070 -1331 1555
-154 311 -214 551 -214 853 0 783 497 1480 1246 1748 133 47 308 84 480 100
74 7 339 -4 425 -18z"/>
<path d="M2410 3979 c-287 -51 -537 -226 -680 -475 -89 -156 -125 -314 -117
-514 10 -244 101 -452 273 -625 160 -160 347 -249 577 -276 72 -8 122 -8 195
0 229 27 416 116 576 276 117 117 193 247 242 412 32 106 43 296 25 413 -34
218 -156 430 -331 577 -90 76 -261 164 -375 194 -92 24 -298 34 -385 18z m284
-304 c243 -51 444 -247 500 -485 20 -83 20 -227 1 -308 -27 -113 -81 -208
-170 -298 -137 -138 -278 -198 -465 -198 -187 0 -328 60 -465 198 -89 90 -143
185 -170 298 -19 81 -19 225 1 308 79 338 427 557 768 485z"/>
</g>
</svg>
