<?xml version="1.0" standalone="no"?>
<!DOCTYPE svg PUBLIC "-//W3C//DTD SVG 20010904//EN"
 "http://www.w3.org/TR/2001/REC-SVG-20010904/DTD/svg10.dtd">
<svg version="1.0" xmlns="http://www.w3.org/2000/svg"
 width="512.000000pt" height="512.000000pt" viewBox="0 0 512.000000 512.000000"
 preserveAspectRatio="xMidYMid meet">

<g transform="translate(0.000000,512.000000) scale(0.100000,-0.100000)"
fill="#000000" stroke="none">
<path d="M1956 4929 c-64 -15 -158 -70 -213 -125 -81 -81 -111 -150 -152 -363
l-37 -183 -91 -23 c-52 -14 -132 -44 -185 -71 -76 -39 -110 -65 -183 -139
-123 -124 -188 -239 -220 -393 -21 -99 -21 -2045 0 -2144 62 -293 291 -528
589 -603 l90 -23 37 -183 c27 -139 44 -200 68 -248 45 -88 119 -159 216 -207
l79 -39 570 -3 c410 -3 586 0 626 8 126 27 252 125 310 241 25 48 42 108 69
248 l37 183 90 23 c302 76 539 324 593 619 8 41 11 380 11 1060 0 1079 0 1063
-53 1196 -95 234 -300 412 -550 475 l-91 23 -37 183 c-27 139 -44 200 -68 248
-46 90 -123 163 -218 209 l-78 37 -585 2 c-333 1 -602 -3 -624 -8z m1128 -279
c90 -20 126 -72 155 -222 12 -62 24 -125 27 -140 l6 -28 -711 0 c-391 0 -711
4 -711 8 0 29 55 272 66 294 18 35 76 79 117 88 46 11 1004 11 1051 0z m526
-694 c168 -55 296 -185 347 -351 17 -56 18 -118 18 -1045 0 -927 -1 -989 -18
-1045 -52 -169 -183 -300 -352 -352 -56 -17 -117 -18 -1040 -18 -774 0 -991 3
-1030 13 -176 46 -318 183 -372 357 -17 56 -18 118 -18 1045 0 927 1 989 18
1045 61 198 225 339 427 365 30 5 485 7 1010 6 894 -1 959 -3 1010 -20z m-344
-3123 c-3 -16 -15 -78 -27 -140 -25 -128 -41 -161 -100 -200 l-43 -28 -536 0
-536 0 -43 28 c-59 39 -75 72 -100 200 -12 62 -24 124 -27 140 l-6 27 712 0
712 0 -6 -27z"/>
<path d="M2495 3551 c-16 -10 -39 -28 -50 -41 -19 -21 -20 -38 -23 -507 -2
-456 -1 -487 16 -514 19 -31 521 -425 560 -440 61 -23 139 2 172 56 24 39 26
104 5 145 -9 18 -109 102 -243 206 l-227 176 -5 428 -5 428 -25 27 c-53 57
-120 70 -175 36z"/>
</g>
</svg>
